<svg xmlns="http://www.w3.org/2000/svg" viewBox="0 0 400 400" width="400" height="400">
  <circle cx="200" cy="200" r="200" fill="#0B1121" />

  <circle cx="200" cy="200" r="180" fill="none" stroke="#38BDF8" stroke-width="4" opacity="0.8" />
  
  <circle cx="200" cy="200" r="120" fill="none" stroke="#38BDF8" stroke-width="2" stroke-dasharray="6 6" opacity="0.5" />
  <circle cx="200" cy="200" r="60" fill="none" stroke="#38BDF8" stroke-width="2" stroke-dasharray="6 6" opacity="0.3" />

  <line x1="20" y1="200" x2="380" y2="200" stroke="#38BDF8" stroke-width="2" opacity="0.4" />
  <line x1="200" y1="20" x2="200" y2="380" stroke="#38BDF8" stroke-width="2" opacity="0.4" />

  <defs>
    <radialGradient id="sweep" cx="50%" cy="50%" r="50%" fx="50%" fy="50%">
      <stop offset="0%" stop-color="#38BDF8" stop-opacity="0.5"/>
      <stop offset="100%" stop-color="#38BDF8" stop-opacity="0"/>
    </radialGradient>
    <radialGradient id="starGlow" cx="50%" cy="50%" r="50%">
      <stop offset="0%" stop-color="#FACC15" stop-opacity="0.8"/>
      <stop offset="100%" stop-color="#FACC15" stop-opacity="0"/>
    </radialGradient>
  </defs>

  <path d="M200,200 L200,20 A180,180 0 0,1 380,200 Z" fill="url(#sweep)" />

  <circle cx="200" cy="200" r="50" fill="url(#starGlow)" />
  <path d="M200,130 L210,190 L270,200 L210,210 L200,270 L190,210 L130,200 L190,190 Z" fill="#FEF08A" />
  
  <circle cx="280" cy="120" r="8" fill="#34D399" />
  <circle cx="280" cy="120" r="14" fill="none" stroke="#34D399" stroke-width="2" opacity="0.6" />
  
  <circle cx="120" cy="140" r="6" fill="#F472B6" />
  <circle cx="150" cy="280" r="10" fill="#A78BFA" />
  <circle cx="260" cy="260" r="5" fill="#38BDF8" />
</svg>
